<mxfile host="app.diagrams.net" modified="2023-11-09T09:47:35.279Z" agent="Mozilla/5.0 (Macintosh; Intel Mac OS X 10_15_7) AppleWebKit/537.36 (KHTML, like Gecko) Chrome/119.0.0.0 Safari/537.36" etag="xYfDmihGKsOzSMeBl9gB" version="22.1.0" type="github">
  <diagram name="Seite-1" id="N6Jan-Rdk0IKHwFH1EoH">
    <mxGraphModel dx="1026" dy="654" grid="1" gridSize="10" guides="1" tooltips="1" connect="1" arrows="1" fold="1" page="1" pageScale="1" pageWidth="827" pageHeight="1169" math="0" shadow="0">
      <root>
        <mxCell id="0" />
        <mxCell id="1" parent="0" />
        <mxCell id="GGhbiafoqysgE8_Morpk-1" value="" style="whiteSpace=wrap;html=1;aspect=fixed;" parent="1" vertex="1">
          <mxGeometry x="180" y="70" width="510" height="510" as="geometry" />
        </mxCell>
        <mxCell id="GGhbiafoqysgE8_Morpk-16" style="edgeStyle=none;shape=connector;rounded=0;orthogonalLoop=1;jettySize=auto;html=1;exitX=0.5;exitY=0.5;exitDx=0;exitDy=0;exitPerimeter=0;entryX=1;entryY=0.5;entryDx=0;entryDy=0;labelBackgroundColor=default;strokeColor=default;align=center;verticalAlign=middle;fontFamily=Helvetica;fontSize=11;fontColor=default;endArrow=classic;" parent="1" source="GGhbiafoqysgE8_Morpk-2" target="GGhbiafoqysgE8_Morpk-9" edge="1">
          <mxGeometry relative="1" as="geometry" />
        </mxCell>
        <mxCell id="GGhbiafoqysgE8_Morpk-2" value="Verwaltung" style="shape=umlActor;verticalLabelPosition=bottom;verticalAlign=top;html=1;outlineConnect=0;" parent="1" vertex="1">
          <mxGeometry x="750" y="270" width="30" height="60" as="geometry" />
        </mxCell>
        <mxCell id="GGhbiafoqysgE8_Morpk-17" style="edgeStyle=none;shape=connector;rounded=0;orthogonalLoop=1;jettySize=auto;html=1;exitX=0;exitY=0.3333333333333333;exitDx=0;exitDy=0;exitPerimeter=0;entryX=1;entryY=0.5;entryDx=0;entryDy=0;labelBackgroundColor=default;strokeColor=default;align=center;verticalAlign=middle;fontFamily=Helvetica;fontSize=11;fontColor=default;endArrow=classic;" parent="1" source="GGhbiafoqysgE8_Morpk-2" target="GGhbiafoqysgE8_Morpk-12" edge="1">
          <mxGeometry relative="1" as="geometry" />
        </mxCell>
        <mxCell id="GGhbiafoqysgE8_Morpk-13" style="rounded=0;orthogonalLoop=1;jettySize=auto;html=1;exitX=0.5;exitY=0.5;exitDx=0;exitDy=0;exitPerimeter=0;entryX=0;entryY=0.5;entryDx=0;entryDy=0;" parent="1" source="GGhbiafoqysgE8_Morpk-4" target="GGhbiafoqysgE8_Morpk-8" edge="1">
          <mxGeometry relative="1" as="geometry" />
        </mxCell>
        <mxCell id="VWa2UIGW0JFw9dLLVXkl-41" style="rounded=0;orthogonalLoop=1;jettySize=auto;html=1;exitX=0.5;exitY=0.5;exitDx=0;exitDy=0;exitPerimeter=0;entryX=0;entryY=0.5;entryDx=0;entryDy=0;" edge="1" parent="1" source="GGhbiafoqysgE8_Morpk-4" target="GGhbiafoqysgE8_Morpk-10">
          <mxGeometry relative="1" as="geometry" />
        </mxCell>
        <mxCell id="GGhbiafoqysgE8_Morpk-4" value="Mitarbeiter" style="shape=umlActor;verticalLabelPosition=bottom;verticalAlign=top;html=1;outlineConnect=0;" parent="1" vertex="1">
          <mxGeometry x="60" y="120" width="30" height="60" as="geometry" />
        </mxCell>
        <mxCell id="GGhbiafoqysgE8_Morpk-14" style="edgeStyle=none;shape=connector;rounded=0;orthogonalLoop=1;jettySize=auto;html=1;exitX=0.5;exitY=0.5;exitDx=0;exitDy=0;exitPerimeter=0;entryX=0;entryY=0.5;entryDx=0;entryDy=0;labelBackgroundColor=default;strokeColor=default;align=center;verticalAlign=middle;fontFamily=Helvetica;fontSize=11;fontColor=default;endArrow=classic;" parent="1" source="GGhbiafoqysgE8_Morpk-6" target="GGhbiafoqysgE8_Morpk-10" edge="1">
          <mxGeometry relative="1" as="geometry" />
        </mxCell>
        <mxCell id="GGhbiafoqysgE8_Morpk-6" value="Tierarzt" style="shape=umlActor;verticalLabelPosition=bottom;verticalAlign=top;html=1;outlineConnect=0;" parent="1" vertex="1">
          <mxGeometry x="60" y="290" width="30" height="60" as="geometry" />
        </mxCell>
        <mxCell id="GGhbiafoqysgE8_Morpk-15" style="edgeStyle=none;shape=connector;rounded=0;orthogonalLoop=1;jettySize=auto;html=1;exitX=0.5;exitY=0.5;exitDx=0;exitDy=0;exitPerimeter=0;entryX=0;entryY=0.5;entryDx=0;entryDy=0;labelBackgroundColor=default;strokeColor=default;align=center;verticalAlign=middle;fontFamily=Helvetica;fontSize=11;fontColor=default;endArrow=classic;" parent="1" source="GGhbiafoqysgE8_Morpk-7" target="GGhbiafoqysgE8_Morpk-11" edge="1">
          <mxGeometry relative="1" as="geometry" />
        </mxCell>
        <mxCell id="GGhbiafoqysgE8_Morpk-7" value="Besucher" style="shape=umlActor;verticalLabelPosition=bottom;verticalAlign=top;html=1;outlineConnect=0;" parent="1" vertex="1">
          <mxGeometry x="60" y="440" width="30" height="60" as="geometry" />
        </mxCell>
        <mxCell id="GGhbiafoqysgE8_Morpk-32" style="edgeStyle=none;shape=connector;rounded=0;orthogonalLoop=1;jettySize=auto;html=1;exitX=1;exitY=1;exitDx=0;exitDy=0;entryX=0.5;entryY=0;entryDx=0;entryDy=0;shadow=1;dashed=1;labelBackgroundColor=default;strokeColor=default;align=center;verticalAlign=middle;fontFamily=Helvetica;fontSize=11;fontColor=default;endArrow=classic;" parent="1" source="GGhbiafoqysgE8_Morpk-8" target="GGhbiafoqysgE8_Morpk-10" edge="1">
          <mxGeometry relative="1" as="geometry" />
        </mxCell>
        <mxCell id="GGhbiafoqysgE8_Morpk-35" style="edgeStyle=none;shape=connector;rounded=0;orthogonalLoop=1;jettySize=auto;html=1;exitX=1;exitY=0.5;exitDx=0;exitDy=0;entryX=0;entryY=0.5;entryDx=0;entryDy=0;shadow=1;dashed=1;labelBackgroundColor=default;strokeColor=default;align=center;verticalAlign=middle;fontFamily=Helvetica;fontSize=11;fontColor=default;endArrow=classic;" parent="1" source="GGhbiafoqysgE8_Morpk-8" target="GGhbiafoqysgE8_Morpk-9" edge="1">
          <mxGeometry relative="1" as="geometry" />
        </mxCell>
        <mxCell id="GGhbiafoqysgE8_Morpk-8" value="AuftrÃ¤ge verwalten" style="ellipse;whiteSpace=wrap;html=1;" parent="1" vertex="1">
          <mxGeometry x="240" y="120" width="120" height="80" as="geometry" />
        </mxCell>
        <mxCell id="GGhbiafoqysgE8_Morpk-9" value="Mitarbeiter verwalten" style="ellipse;whiteSpace=wrap;html=1;" parent="1" vertex="1">
          <mxGeometry x="500" y="180" width="120" height="80" as="geometry" />
        </mxCell>
        <mxCell id="GGhbiafoqysgE8_Morpk-33" style="edgeStyle=none;shape=connector;rounded=0;orthogonalLoop=1;jettySize=auto;html=1;exitX=1;exitY=0;exitDx=0;exitDy=0;entryX=0;entryY=1;entryDx=0;entryDy=0;shadow=1;dashed=1;labelBackgroundColor=default;strokeColor=default;align=center;verticalAlign=middle;fontFamily=Helvetica;fontSize=11;fontColor=default;endArrow=classic;" parent="1" source="GGhbiafoqysgE8_Morpk-10" target="GGhbiafoqysgE8_Morpk-9" edge="1">
          <mxGeometry relative="1" as="geometry" />
        </mxCell>
        <mxCell id="GGhbiafoqysgE8_Morpk-10" value="Tiere verwalten" style="ellipse;whiteSpace=wrap;html=1;" parent="1" vertex="1">
          <mxGeometry x="320" y="260" width="120" height="80" as="geometry" />
        </mxCell>
        <mxCell id="GGhbiafoqysgE8_Morpk-30" style="edgeStyle=none;shape=connector;rounded=0;orthogonalLoop=1;jettySize=auto;html=1;exitX=1;exitY=0.5;exitDx=0;exitDy=0;entryX=0;entryY=0.5;entryDx=0;entryDy=0;shadow=1;dashed=1;labelBackgroundColor=default;strokeColor=default;align=center;verticalAlign=middle;fontFamily=Helvetica;fontSize=11;fontColor=default;endArrow=classic;" parent="1" source="GGhbiafoqysgE8_Morpk-11" target="GGhbiafoqysgE8_Morpk-12" edge="1">
          <mxGeometry relative="1" as="geometry" />
        </mxCell>
        <mxCell id="GGhbiafoqysgE8_Morpk-31" style="edgeStyle=none;shape=connector;rounded=0;orthogonalLoop=1;jettySize=auto;html=1;exitX=0.5;exitY=0;exitDx=0;exitDy=0;entryX=0.5;entryY=1;entryDx=0;entryDy=0;shadow=1;dashed=1;labelBackgroundColor=default;strokeColor=default;align=center;verticalAlign=middle;fontFamily=Helvetica;fontSize=11;fontColor=default;endArrow=classic;" parent="1" source="GGhbiafoqysgE8_Morpk-11" target="GGhbiafoqysgE8_Morpk-10" edge="1">
          <mxGeometry relative="1" as="geometry" />
        </mxCell>
        <mxCell id="GGhbiafoqysgE8_Morpk-11" value="Karten anzeigen" style="ellipse;whiteSpace=wrap;html=1;" parent="1" vertex="1">
          <mxGeometry x="260" y="400" width="120" height="80" as="geometry" />
        </mxCell>
        <mxCell id="GGhbiafoqysgE8_Morpk-34" style="edgeStyle=none;shape=connector;rounded=0;orthogonalLoop=1;jettySize=auto;html=1;exitX=0.5;exitY=0;exitDx=0;exitDy=0;shadow=1;dashed=1;labelBackgroundColor=default;strokeColor=default;align=center;verticalAlign=middle;fontFamily=Helvetica;fontSize=11;fontColor=default;endArrow=classic;" parent="1" source="GGhbiafoqysgE8_Morpk-12" target="GGhbiafoqysgE8_Morpk-9" edge="1">
          <mxGeometry relative="1" as="geometry" />
        </mxCell>
        <mxCell id="GGhbiafoqysgE8_Morpk-12" value="Karten verwalten" style="ellipse;whiteSpace=wrap;html=1;" parent="1" vertex="1">
          <mxGeometry x="510" y="450" width="120" height="80" as="geometry" />
        </mxCell>
        <mxCell id="GGhbiafoqysgE8_Morpk-37" value="#include" style="text;html=1;strokeColor=none;fillColor=none;align=center;verticalAlign=middle;whiteSpace=wrap;rounded=0;fontSize=11;fontFamily=Helvetica;fontColor=default;" parent="1" vertex="1">
          <mxGeometry x="405" y="150" width="60" height="30" as="geometry" />
        </mxCell>
        <mxCell id="GGhbiafoqysgE8_Morpk-38" value="#include" style="text;html=1;strokeColor=none;fillColor=none;align=center;verticalAlign=middle;whiteSpace=wrap;rounded=0;fontSize=11;fontFamily=Helvetica;fontColor=default;" parent="1" vertex="1">
          <mxGeometry x="354" y="205" width="60" height="30" as="geometry" />
        </mxCell>
        <mxCell id="GGhbiafoqysgE8_Morpk-39" value="#include" style="text;html=1;strokeColor=none;fillColor=none;align=center;verticalAlign=middle;whiteSpace=wrap;rounded=0;fontSize=11;fontFamily=Helvetica;fontColor=default;" parent="1" vertex="1">
          <mxGeometry x="450" y="270" width="60" height="30" as="geometry" />
        </mxCell>
        <mxCell id="GGhbiafoqysgE8_Morpk-40" value="#include" style="text;html=1;strokeColor=none;fillColor=none;align=center;verticalAlign=middle;whiteSpace=wrap;rounded=0;fontSize=11;fontFamily=Helvetica;fontColor=default;" parent="1" vertex="1">
          <mxGeometry x="560" y="310" width="60" height="30" as="geometry" />
        </mxCell>
        <mxCell id="GGhbiafoqysgE8_Morpk-41" value="#include" style="text;html=1;strokeColor=none;fillColor=none;align=center;verticalAlign=middle;whiteSpace=wrap;rounded=0;fontSize=11;fontFamily=Helvetica;fontColor=default;" parent="1" vertex="1">
          <mxGeometry x="350" y="360" width="60" height="30" as="geometry" />
        </mxCell>
        <mxCell id="GGhbiafoqysgE8_Morpk-42" value="#include" style="text;html=1;strokeColor=none;fillColor=none;align=center;verticalAlign=middle;whiteSpace=wrap;rounded=0;fontSize=11;fontFamily=Helvetica;fontColor=default;" parent="1" vertex="1">
          <mxGeometry x="440" y="440" width="60" height="30" as="geometry" />
        </mxCell>
        <mxCell id="VWa2UIGW0JFw9dLLVXkl-5" value="Tiere verwalten" style="shape=table;startSize=30;container=1;collapsible=0;childLayout=tableLayout;fixedRows=1;rowLines=0;fontStyle=0;strokeColor=default;fontSize=16;" vertex="1" parent="1">
          <mxGeometry x="90" y="630" width="690" height="350" as="geometry" />
        </mxCell>
        <mxCell id="VWa2UIGW0JFw9dLLVXkl-6" value="" style="shape=tableRow;horizontal=0;startSize=0;swimlaneHead=0;swimlaneBody=0;top=0;left=0;bottom=0;right=0;collapsible=0;dropTarget=0;fillColor=none;points=[[0,0.5],[1,0.5]];portConstraint=eastwest;strokeColor=inherit;fontSize=16;" vertex="1" parent="VWa2UIGW0JFw9dLLVXkl-5">
          <mxGeometry y="30" width="690" height="30" as="geometry" />
        </mxCell>
        <mxCell id="VWa2UIGW0JFw9dLLVXkl-7" value="Name" style="shape=partialRectangle;html=1;whiteSpace=wrap;connectable=0;fillColor=none;top=0;left=0;bottom=0;right=0;overflow=hidden;pointerEvents=1;strokeColor=inherit;fontSize=16;" vertex="1" parent="VWa2UIGW0JFw9dLLVXkl-6">
          <mxGeometry width="153" height="30" as="geometry">
            <mxRectangle width="153" height="30" as="alternateBounds" />
          </mxGeometry>
        </mxCell>
        <mxCell id="VWa2UIGW0JFw9dLLVXkl-8" value="Tiere verwalten" style="shape=partialRectangle;html=1;whiteSpace=wrap;connectable=0;fillColor=none;top=0;left=0;bottom=0;right=0;align=left;spacingLeft=6;overflow=hidden;strokeColor=inherit;fontSize=16;" vertex="1" parent="VWa2UIGW0JFw9dLLVXkl-6">
          <mxGeometry x="153" width="537" height="30" as="geometry">
            <mxRectangle width="537" height="30" as="alternateBounds" />
          </mxGeometry>
        </mxCell>
        <mxCell id="VWa2UIGW0JFw9dLLVXkl-9" value="" style="shape=tableRow;horizontal=0;startSize=0;swimlaneHead=0;swimlaneBody=0;top=0;left=0;bottom=0;right=0;collapsible=0;dropTarget=0;fillColor=none;points=[[0,0.5],[1,0.5]];portConstraint=eastwest;strokeColor=inherit;fontSize=16;" vertex="1" parent="VWa2UIGW0JFw9dLLVXkl-5">
          <mxGeometry y="60" width="690" height="30" as="geometry" />
        </mxCell>
        <mxCell id="VWa2UIGW0JFw9dLLVXkl-10" value="Ziel im Kontext&lt;span style=&quot;white-space: pre;&quot;&gt;&#x9;&lt;/span&gt;" style="shape=partialRectangle;html=1;whiteSpace=wrap;connectable=0;fillColor=none;top=0;left=0;bottom=0;right=0;overflow=hidden;strokeColor=inherit;fontSize=16;" vertex="1" parent="VWa2UIGW0JFw9dLLVXkl-9">
          <mxGeometry width="153" height="30" as="geometry">
            <mxRectangle width="153" height="30" as="alternateBounds" />
          </mxGeometry>
        </mxCell>
        <mxCell id="VWa2UIGW0JFw9dLLVXkl-11" value="Ein Mitarbeiter/Tierarzt Ã¤ndert die Daten eines Tieres (oder legt an)" style="shape=partialRectangle;html=1;whiteSpace=wrap;connectable=0;fillColor=none;top=0;left=0;bottom=0;right=0;align=left;spacingLeft=6;overflow=hidden;strokeColor=inherit;fontSize=16;" vertex="1" parent="VWa2UIGW0JFw9dLLVXkl-9">
          <mxGeometry x="153" width="537" height="30" as="geometry">
            <mxRectangle width="537" height="30" as="alternateBounds" />
          </mxGeometry>
        </mxCell>
        <mxCell id="VWa2UIGW0JFw9dLLVXkl-26" value="" style="shape=tableRow;horizontal=0;startSize=0;swimlaneHead=0;swimlaneBody=0;top=0;left=0;bottom=0;right=0;collapsible=0;dropTarget=0;fillColor=none;points=[[0,0.5],[1,0.5]];portConstraint=eastwest;strokeColor=inherit;fontSize=16;" vertex="1" parent="VWa2UIGW0JFw9dLLVXkl-5">
          <mxGeometry y="90" width="690" height="30" as="geometry" />
        </mxCell>
        <mxCell id="VWa2UIGW0JFw9dLLVXkl-27" value="Akteure" style="shape=partialRectangle;html=1;whiteSpace=wrap;connectable=0;fillColor=none;top=0;left=0;bottom=0;right=0;overflow=hidden;strokeColor=inherit;fontSize=16;" vertex="1" parent="VWa2UIGW0JFw9dLLVXkl-26">
          <mxGeometry width="153" height="30" as="geometry">
            <mxRectangle width="153" height="30" as="alternateBounds" />
          </mxGeometry>
        </mxCell>
        <mxCell id="VWa2UIGW0JFw9dLLVXkl-28" value="Tierarzt, Mitarbeiter" style="shape=partialRectangle;html=1;whiteSpace=wrap;connectable=0;fillColor=none;top=0;left=0;bottom=0;right=0;align=left;spacingLeft=6;overflow=hidden;strokeColor=inherit;fontSize=16;" vertex="1" parent="VWa2UIGW0JFw9dLLVXkl-26">
          <mxGeometry x="153" width="537" height="30" as="geometry">
            <mxRectangle width="537" height="30" as="alternateBounds" />
          </mxGeometry>
        </mxCell>
        <mxCell id="VWa2UIGW0JFw9dLLVXkl-29" value="" style="shape=tableRow;horizontal=0;startSize=0;swimlaneHead=0;swimlaneBody=0;top=0;left=0;bottom=0;right=0;collapsible=0;dropTarget=0;fillColor=none;points=[[0,0.5],[1,0.5]];portConstraint=eastwest;strokeColor=inherit;fontSize=16;" vertex="1" parent="VWa2UIGW0JFw9dLLVXkl-5">
          <mxGeometry y="120" width="690" height="30" as="geometry" />
        </mxCell>
        <mxCell id="VWa2UIGW0JFw9dLLVXkl-30" value="Trigger" style="shape=partialRectangle;html=1;whiteSpace=wrap;connectable=0;fillColor=none;top=0;left=0;bottom=0;right=0;overflow=hidden;strokeColor=inherit;fontSize=16;" vertex="1" parent="VWa2UIGW0JFw9dLLVXkl-29">
          <mxGeometry width="153" height="30" as="geometry">
            <mxRectangle width="153" height="30" as="alternateBounds" />
          </mxGeometry>
        </mxCell>
        <mxCell id="VWa2UIGW0JFw9dLLVXkl-31" value="Bedarf einer Ãnderung eines Tieres" style="shape=partialRectangle;html=1;whiteSpace=wrap;connectable=0;fillColor=none;top=0;left=0;bottom=0;right=0;align=left;spacingLeft=6;overflow=hidden;strokeColor=inherit;fontSize=16;" vertex="1" parent="VWa2UIGW0JFw9dLLVXkl-29">
          <mxGeometry x="153" width="537" height="30" as="geometry">
            <mxRectangle width="537" height="30" as="alternateBounds" />
          </mxGeometry>
        </mxCell>
        <mxCell id="VWa2UIGW0JFw9dLLVXkl-32" value="" style="shape=tableRow;horizontal=0;startSize=0;swimlaneHead=0;swimlaneBody=0;top=0;left=0;bottom=0;right=0;collapsible=0;dropTarget=0;fillColor=none;points=[[0,0.5],[1,0.5]];portConstraint=eastwest;strokeColor=inherit;fontSize=16;" vertex="1" parent="VWa2UIGW0JFw9dLLVXkl-5">
          <mxGeometry y="150" width="690" height="110" as="geometry" />
        </mxCell>
        <mxCell id="VWa2UIGW0JFw9dLLVXkl-33" value="Essenzielle Schritte" style="shape=partialRectangle;html=1;whiteSpace=wrap;connectable=0;fillColor=none;top=0;left=0;bottom=0;right=0;overflow=hidden;strokeColor=inherit;fontSize=16;" vertex="1" parent="VWa2UIGW0JFw9dLLVXkl-32">
          <mxGeometry width="153" height="110" as="geometry">
            <mxRectangle width="153" height="110" as="alternateBounds" />
          </mxGeometry>
        </mxCell>
        <mxCell id="VWa2UIGW0JFw9dLLVXkl-34" value="1. Der Akteur Ã¶ffnet das Programm.&lt;br&gt;2. Akteur klickt auf Tier verwalten.&lt;br&gt;3. Dateneingabe.&lt;br&gt;4. Speichern.&lt;br&gt;5. Programm schlieÃen." style="shape=partialRectangle;html=1;whiteSpace=wrap;connectable=0;fillColor=none;top=0;left=0;bottom=0;right=0;align=left;spacingLeft=6;overflow=hidden;strokeColor=inherit;fontSize=16;" vertex="1" parent="VWa2UIGW0JFw9dLLVXkl-32">
          <mxGeometry x="153" width="537" height="110" as="geometry">
            <mxRectangle width="537" height="110" as="alternateBounds" />
          </mxGeometry>
        </mxCell>
        <mxCell id="VWa2UIGW0JFw9dLLVXkl-35" value="" style="shape=tableRow;horizontal=0;startSize=0;swimlaneHead=0;swimlaneBody=0;top=0;left=0;bottom=0;right=0;collapsible=0;dropTarget=0;fillColor=none;points=[[0,0.5],[1,0.5]];portConstraint=eastwest;strokeColor=inherit;fontSize=16;" vertex="1" parent="VWa2UIGW0JFw9dLLVXkl-5">
          <mxGeometry y="260" width="690" height="30" as="geometry" />
        </mxCell>
        <mxCell id="VWa2UIGW0JFw9dLLVXkl-36" value="Erweiterungen" style="shape=partialRectangle;html=1;whiteSpace=wrap;connectable=0;fillColor=none;top=0;left=0;bottom=0;right=0;overflow=hidden;strokeColor=inherit;fontSize=16;" vertex="1" parent="VWa2UIGW0JFw9dLLVXkl-35">
          <mxGeometry width="153" height="30" as="geometry">
            <mxRectangle width="153" height="30" as="alternateBounds" />
          </mxGeometry>
        </mxCell>
        <mxCell id="VWa2UIGW0JFw9dLLVXkl-37" value="Value 3" style="shape=partialRectangle;html=1;whiteSpace=wrap;connectable=0;fillColor=none;top=0;left=0;bottom=0;right=0;align=left;spacingLeft=6;overflow=hidden;strokeColor=inherit;fontSize=16;" vertex="1" parent="VWa2UIGW0JFw9dLLVXkl-35">
          <mxGeometry x="153" width="537" height="30" as="geometry">
            <mxRectangle width="537" height="30" as="alternateBounds" />
          </mxGeometry>
        </mxCell>
        <mxCell id="VWa2UIGW0JFw9dLLVXkl-38" value="" style="shape=tableRow;horizontal=0;startSize=0;swimlaneHead=0;swimlaneBody=0;top=0;left=0;bottom=0;right=0;collapsible=0;dropTarget=0;fillColor=none;points=[[0,0.5],[1,0.5]];portConstraint=eastwest;strokeColor=inherit;fontSize=16;" vertex="1" parent="VWa2UIGW0JFw9dLLVXkl-5">
          <mxGeometry y="290" width="690" height="30" as="geometry" />
        </mxCell>
        <mxCell id="VWa2UIGW0JFw9dLLVXkl-39" value="Bedingungen" style="shape=partialRectangle;html=1;whiteSpace=wrap;connectable=0;fillColor=none;top=0;left=0;bottom=0;right=0;overflow=hidden;strokeColor=inherit;fontSize=16;" vertex="1" parent="VWa2UIGW0JFw9dLLVXkl-38">
          <mxGeometry width="153" height="30" as="geometry">
            <mxRectangle width="153" height="30" as="alternateBounds" />
          </mxGeometry>
        </mxCell>
        <mxCell id="VWa2UIGW0JFw9dLLVXkl-40" value="Value 3" style="shape=partialRectangle;html=1;whiteSpace=wrap;connectable=0;fillColor=none;top=0;left=0;bottom=0;right=0;align=left;spacingLeft=6;overflow=hidden;strokeColor=inherit;fontSize=16;" vertex="1" parent="VWa2UIGW0JFw9dLLVXkl-38">
          <mxGeometry x="153" width="537" height="30" as="geometry">
            <mxRectangle width="537" height="30" as="alternateBounds" />
          </mxGeometry>
        </mxCell>
        <mxCell id="VWa2UIGW0JFw9dLLVXkl-12" value="" style="shape=tableRow;horizontal=0;startSize=0;swimlaneHead=0;swimlaneBody=0;top=0;left=0;bottom=0;right=0;collapsible=0;dropTarget=0;fillColor=none;points=[[0,0.5],[1,0.5]];portConstraint=eastwest;strokeColor=inherit;fontSize=16;" vertex="1" parent="VWa2UIGW0JFw9dLLVXkl-5">
          <mxGeometry y="320" width="690" height="30" as="geometry" />
        </mxCell>
        <mxCell id="VWa2UIGW0JFw9dLLVXkl-13" value="Vorbedingungen" style="shape=partialRectangle;html=1;whiteSpace=wrap;connectable=0;fillColor=none;top=0;left=0;bottom=0;right=0;overflow=hidden;strokeColor=inherit;fontSize=16;" vertex="1" parent="VWa2UIGW0JFw9dLLVXkl-12">
          <mxGeometry width="153" height="30" as="geometry">
            <mxRectangle width="153" height="30" as="alternateBounds" />
          </mxGeometry>
        </mxCell>
        <mxCell id="VWa2UIGW0JFw9dLLVXkl-14" value="Value 3" style="shape=partialRectangle;html=1;whiteSpace=wrap;connectable=0;fillColor=none;top=0;left=0;bottom=0;right=0;align=left;spacingLeft=6;overflow=hidden;strokeColor=inherit;fontSize=16;" vertex="1" parent="VWa2UIGW0JFw9dLLVXkl-12">
          <mxGeometry x="153" width="537" height="30" as="geometry">
            <mxRectangle width="537" height="30" as="alternateBounds" />
          </mxGeometry>
        </mxCell>
      </root>
    </mxGraphModel>
  </diagram>
</mxfile>
